<svg width="72" height="78" viewBox="0 0 72 78" fill="none" xmlns="http://www.w3.org/2000/svg">
<path d="M45.3563 8.59127C45.4216 13.6243 45.8131 18.6574 46.6614 23.6268C46.7267 23.8179 46.7267 24.009 46.7919 24.2002C47.4445 27.6405 49.2716 30.1252 52.4038 31.8453C54.492 32.9921 56.6454 34.0115 59.0598 34.3937C62.714 35.0308 66.4335 35.7316 70.0878 36.4324C71.1318 36.6236 71.8496 37.2607 71.9801 38.1526C72.1107 38.9808 71.5886 39.809 70.6751 40.255C70.153 40.4461 69.5657 40.5736 69.0437 40.7647C65.9767 41.5292 62.9098 42.4211 60.0386 43.8228C55.4055 46.0526 52.0123 49.4929 50.0546 54.1437C47.7707 59.4953 46.2046 65.0381 45.4216 70.772C45.2258 72.4284 44.9648 74.0849 44.769 75.7413C44.6385 76.8244 44.0512 77.4615 43.1377 77.5252C42.2241 77.6526 41.5063 77.2067 41.0495 76.251C40.8538 75.805 40.7233 75.3591 40.5927 74.9131C39.1572 70.2623 37.1343 65.8663 34.5893 61.6615C34.002 60.7695 33.4148 59.8139 32.697 59.0494C29.4342 55.6728 25.9105 52.551 21.8647 50.0663C18.5367 48.0276 14.8825 46.8808 11.0977 46.0526C8.03077 45.4155 4.96381 44.8421 1.89685 44.2687C0.722267 44.0776 0.0697222 43.4405 0.00446773 42.5486C-0.0607867 41.5929 0.591758 40.8284 1.76634 40.5736C2.09261 40.5098 2.48414 40.4461 2.87566 40.4461C4.70279 40.6373 6.39941 40.1276 8.09602 39.8728C11.5545 39.2994 14.8825 38.28 18.2105 37.2607C19.9071 36.751 21.5384 36.1139 23.2351 35.5405C28.7164 33.6292 32.0444 29.7429 34.1326 24.6461C34.6546 23.3082 35.0461 21.9066 35.6334 20.6324C36.4817 18.7211 37.3953 16.8098 38.2436 14.8985C38.7656 13.8155 39.3529 12.6687 39.6792 11.5219C40.4622 8.7824 41.18 6.04288 41.9631 3.23965C42.0936 2.79369 42.2894 2.34772 42.4851 1.83804C42.7461 1.20094 43.2029 0.818684 43.9207 0.882393C44.7038 0.946103 45.1606 1.45578 45.2911 2.15659C45.3563 2.72998 45.3563 3.23965 45.3563 3.81304C45.3563 5.40578 45.3563 6.99853 45.3563 8.59127Z" fill="#DC2F02"/>
</svg>
