<svg width="71" height="73" viewBox="0 0 71 73" fill="none" xmlns="http://www.w3.org/2000/svg">
<path d="M42.0924 50.6492C41.6331 54.1381 41.3999 57.0099 41.002 59.9583C40.8952 60.6221 40.8627 61.4559 40.756 62.1197C40.5878 63.3237 39.9416 64.3409 38.64 64.5374C37.3384 64.7339 36.5635 63.8665 36.1633 62.7223C34.9626 59.2898 33.8072 55.7339 32.6065 52.3014C32.3548 51.4975 32.0578 50.817 31.5381 49.6261C29.8711 51.9372 28.3398 53.878 26.8085 55.8189C25.5324 57.4363 24.3306 59.2239 22.8608 60.6244C22.3503 61.2714 21.123 61.638 20.4803 61.5278C19.2402 61.1839 19.2889 59.9331 19.5314 58.8992C20.2877 56.0909 21.2088 53.2059 21.9652 50.3976C22.4791 48.6232 22.993 46.8489 23.5684 44.5342C22.1926 44.5605 21.2657 44.4803 20.2936 44.5234C17.4224 44.5294 14.506 44.6588 11.7543 44.7115C10.7821 44.7546 9.85523 44.6743 8.97358 44.4707C7.56873 44.2035 6.13488 43.6428 5.79614 41.9583C5.48641 40.5673 6.38779 39.2266 8.31931 38.4299C11.5234 37.1432 14.6371 36.1033 17.9154 34.9867C18.8586 34.65 19.8017 34.3133 20.9096 33.9C18.8528 31.6848 16.796 29.4695 14.9781 27.3477C13.0408 25.1792 12.7763 23.6648 13.7972 22.3709C14.8181 21.0769 16.4039 20.8505 18.8226 22.0785C21.4804 23.4 24.0928 24.8449 26.7506 26.1664C27.9002 26.7571 29.1403 27.1009 30.6936 27.7083C31.1333 25.7639 31.6762 24.283 31.9802 22.7088C32.4071 20.0538 32.6693 17.4755 33.0962 14.8206C33.2934 13.91 33.4906 12.9995 33.8073 12.1357C34.3792 10.9484 35.2644 10.0247 36.7144 10.1684C38.045 10.2655 38.82 11.1329 39.0555 12.3537C39.9882 15.3993 40.5624 18.3046 41.3013 21.1333C41.5368 22.3541 41.7723 23.575 42.6505 24.9061C44.1238 22.3781 45.4324 19.9268 46.9057 17.3989C47.5518 16.3817 48.1237 15.1944 48.8894 14.224C49.9555 12.8066 51.1828 12.44 52.3325 13.0307C53.5564 13.7915 53.7918 15.0123 53.5784 16.3398C52.8058 19.565 51.9589 22.6201 51.0668 25.7986C50.9148 26.5858 50.5981 27.4496 50.191 28.5602C51.2826 28.5638 52.1352 28.474 52.9879 28.3841C55.1421 28.0978 57.2964 27.8114 59.4054 27.6485C61.9634 27.3789 63.1582 27.8462 63.5422 29.4073C63.8519 30.7983 63.1605 31.9388 60.9286 33.1825C58.8613 34.3494 56.7941 35.5163 54.7268 36.6832C53.199 37.4967 51.7454 38.4803 50.0076 39.4939C50.2594 40.2978 50.5111 41.1017 50.9276 41.829C52.4705 45.8186 54.1328 49.8549 55.6757 53.8446C56.1502 55.1589 56.2662 56.333 55.0968 57.2866C53.9275 58.2403 52.8521 57.8198 51.7477 57.1057C48.6735 55.057 45.5993 53.0083 42.0924 50.6492Z" fill="#DC2F02"/>
</svg>
