<svg width="172" height="46" viewBox="0 0 172 46" fill="none" xmlns="http://www.w3.org/2000/svg">
<path d="M13.4645 23.5329H15.2408C21.317 23.5329 25.1242 25.5322 25.1242 32.3622C25.1242 37.6996 23.0412 41.517 16.6654 41.517C15.5946 41.5532 14.5231 41.4769 13.468 41.2893L13.4645 23.5329ZM13.4645 6.5885C14.6612 6.41835 15.8689 6.33865 17.0775 6.35006C21.4259 6.35006 23.8772 8.11687 23.8772 12.8415C23.8772 18.7452 20.5366 20.4023 15.242 20.4023H13.4657L13.4645 6.5885ZM4.63263 6.75779C4.99505 8.37968 5.13333 10.0442 5.04355 11.7041V38.9442C5.04355 40.8243 4.81382 41.8556 3.85105 42.3789L1.95632 43.4984V44.8694C4.15776 44.8217 6.60316 44.7072 9.10895 44.7072C11.957 44.7072 14.8287 44.8265 17.4979 44.8694C27.2084 45.1448 34.0496 39.3544 34.0496 31.8854C34.0496 24.836 29.7047 22.0689 22.0891 21.7709V21.66C27.5613 19.7823 32.6783 17.7258 32.6783 11.5265C32.6783 4.64525 26.852 3.22894 21.3679 3.29331C16.7767 3.35531 3.93158 3.35531 0 3.28735V5.55249C0 5.55249 4.05592 5.07562 4.63263 6.7566M44.3203 28.701C41.682 29.1346 39.1535 30.0839 36.8775 31.4955C35.9462 32.2732 35.2116 33.2622 34.7339 34.3814C34.2563 35.5006 34.0494 36.7179 34.1301 37.9333C34.1301 42.2418 36.3316 45.438 40.7617 45.3641C42.5549 45.406 44.3249 44.9506 45.8782 44.0477C47.4315 43.1448 48.7082 41.8292 49.5687 40.2449V44.5165C51.6482 44.4497 53.3226 44.3317 54.9722 44.3317C56.6976 44.3317 58.2786 44.4509 60.1828 44.5165V42.2394L59.5907 42.0785C57.6568 41.9068 56.8966 41.0938 56.8386 39.569C56.7853 37.0654 56.6408 34.5439 56.6408 32.038C56.6408 29.532 56.7853 27.038 56.8386 24.5356C56.9972 18.0442 52.2367 15.7313 46.9918 15.6753C43.2809 15.8151 39.7308 17.2362 36.9379 19.7001V23.8978L38.7142 24.321L39.6711 21.9569C40.1163 20.4726 42.3462 20.4404 43.3658 20.4404C47.8421 20.4404 49.5675 23.347 49.5675 27.609L44.3203 28.701ZM49.5687 37.3539C48.3353 38.8777 46.5578 39.8539 44.6175 40.0732C38.8018 40.1746 38.4193 33.0263 46.8793 30.8732L49.5687 30.177V37.3539ZM80.8615 24.5081L81.3351 17.1071C78.9942 16.0713 76.4499 15.5853 73.8947 15.686C66.9493 15.686 61.6441 18.2409 61.6441 25.1829C61.6441 29.0074 63.7863 31.6123 67.9465 32.6448L73.0729 33.9323C75.2744 34.4628 76.8269 35.2056 76.8269 37.8761C76.8269 40.8231 74.3838 42.4636 71.7099 42.4636C68.9175 42.4636 65.1695 41.784 64.6792 39.2864L63.977 35.0935H61.65L61.6393 43.6629C64.6097 44.7854 67.7556 45.3639 70.9283 45.3713C77.0495 45.3713 83.4276 42.0844 83.4276 35.0291C83.4276 30.022 80.704 28.1479 75.8712 27.0642L70.9863 25.9745C68.7186 25.4762 67.712 24.5046 67.712 22.5637C67.712 19.9409 69.8009 18.6295 73.2553 18.6295C75.15 18.6295 77.882 19.7168 78.1366 20.9805L78.7287 24.5093L80.8615 24.5081ZM133.294 30.2819L133.335 26.3656C133.335 19.2435 128.342 15.6562 121.73 15.6562C119.926 15.6562 107.938 16.5503 108.385 31.2964C108.636 39.9993 113.211 45.351 121.899 45.351C125.258 45.3886 128.56 44.4757 131.428 42.7163L132.738 39.8122L132.013 38.8739C130.088 40.1196 127.883 40.8575 125.6 41.0198C119.403 41.0198 116.126 36.6362 116.126 30.7301C116.126 30.7301 133.297 30.4702 133.297 30.2795M120.908 19.0647C125.319 19.0647 125.786 23.9442 125.786 27.5363C124.121 27.5911 117.443 27.5911 115.784 27.5363C115.784 21.7864 117.442 19.0647 120.908 19.0647ZM164.836 9.37701C164.835 10.0611 165.035 10.7302 165.412 11.2997C165.788 11.8692 166.324 12.3135 166.951 12.5762C167.579 12.839 168.269 12.9085 168.936 12.7759C169.603 12.6433 170.215 12.3146 170.696 11.8314C171.177 11.3482 171.505 10.7321 171.638 10.0613C171.771 9.39044 171.704 8.69492 171.444 8.06276C171.184 7.4306 170.744 6.89022 170.179 6.51C169.614 6.12979 168.95 5.92684 168.27 5.92684C167.361 5.92684 166.488 6.29011 165.845 6.93693C165.201 7.58376 164.838 8.46131 164.836 9.37701ZM165.469 9.37701C165.453 8.99619 165.514 8.61615 165.648 8.2597C165.782 7.90326 165.986 7.57777 166.249 7.30279C166.511 7.02781 166.825 6.80902 167.174 6.65956C167.522 6.5101 167.897 6.43306 168.275 6.43306C168.654 6.43306 169.028 6.5101 169.377 6.65956C169.725 6.80902 170.04 7.02781 170.302 7.30279C170.564 7.57777 170.768 7.90326 170.902 8.2597C171.036 8.61615 171.097 8.99619 171.082 9.37701C171.107 9.76349 171.053 10.151 170.923 10.5156C170.793 10.8802 170.59 11.2141 170.327 11.4967C170.064 11.7793 169.746 12.0046 169.393 12.1586C169.04 12.3126 168.66 12.3921 168.275 12.3921C167.89 12.3921 167.51 12.3126 167.157 12.1586C166.804 12.0046 166.486 11.7793 166.223 11.4967C165.96 11.2141 165.757 10.8802 165.627 10.5156C165.498 10.151 165.444 9.76349 165.469 9.37701ZM166.936 11.4144H167.573V9.65836H168.242L169.316 11.4132H169.989L168.848 9.6059C168.991 9.60944 169.132 9.58295 169.264 9.52816C169.395 9.47336 169.514 9.39145 169.612 9.28771C169.711 9.18397 169.786 9.06068 169.834 8.92576C169.882 8.79085 169.902 8.6473 169.892 8.50433C169.892 7.72584 169.418 7.34792 168.479 7.34792H166.926L166.936 11.4144ZM167.573 7.84506H168.39C168.829 7.84506 169.27 7.93089 169.27 8.48645C169.27 9.14334 168.789 9.17076 168.228 9.17076H167.566L167.573 7.84506ZM104.531 24.501L105.005 17.0999C102.662 16.0665 100.115 15.583 97.5588 15.686C90.5945 15.686 85.2857 18.2409 85.2857 25.1829C85.2857 29.0074 87.4172 31.6123 91.6022 32.6448L96.7263 33.9264C98.9384 34.4569 100.48 35.1996 100.48 37.8701C100.48 40.8172 98.0372 42.4576 95.3609 42.4576C92.5544 42.4576 88.8359 41.7781 88.3243 39.2804L87.6387 35.0875H85.3212L85.2821 43.6569C88.2596 44.7753 91.4108 45.3522 94.5888 45.3606C100.703 45.3606 107.089 42.0737 107.089 35.0184C107.089 30.0112 104.338 28.1371 99.5234 27.0534L94.6457 25.9638C92.3696 25.4655 91.3571 24.4938 91.3571 22.553C91.3571 19.9302 93.4378 18.6188 96.8933 18.6188C98.8153 18.6188 101.554 19.706 101.791 20.9698L102.383 24.4986L104.531 24.501ZM138.175 37.7342C138.175 43.2015 140.388 45.469 145.806 45.469C146.455 45.5367 147.112 45.4747 147.737 45.2867C148.363 45.0987 148.946 44.7884 149.452 44.3734L152.355 40.7969L151.881 39.6047C151.057 40.1239 150.103 40.3979 149.131 40.3951C146.466 40.3951 145.436 39.5499 145.436 36.4693V22.0737L151.761 22.057L151.848 18.2087H145.436V14.8706C145.436 12.0737 145.29 6.82932 145.358 6.60996L144.529 5.99122C142.736 6.84124 138.226 9.06346 138.226 9.05154C138.226 9.01935 138.313 18.2576 138.313 18.2576L134.375 20.8958V22.243L138.18 22.0713L138.175 37.7342ZM153.473 37.7342C153.473 43.2015 155.656 45.469 161.099 45.469C161.745 45.5373 162.398 45.4757 163.021 45.2876C163.643 45.0995 164.222 44.7888 164.724 44.3734L167.639 40.7969L167.18 39.6047C166.357 40.1173 165.409 40.3908 164.441 40.3951C161.734 40.3951 160.732 39.5499 160.732 36.4693V22.0737L167.061 22.057L167.158 18.2087H160.732V14.8706C160.732 12.0737 160.575 6.82932 160.646 6.60996L159.8 5.99122C158.023 6.84124 153.508 9.06346 153.508 9.05154C153.508 9.01935 153.592 18.2122 153.592 18.2122H149.649V22.0773H153.474L153.473 37.7342Z" fill="white"/>
<path d="M62.659 5.96264C62.659 4.9469 62.2078 4.53202 60.3616 3.80003C58.6646 3.13002 58.2028 2.90231 58.2028 2.21085C58.2028 1.55158 58.6966 1.34652 59.9637 1.34652C60.7426 1.35533 61.5177 1.45697 62.2729 1.64933L62.4553 0.860111C61.638 0.624019 60.7926 0.500498 59.9424 0.49292C58.1815 0.49292 57.2258 1.03298 57.2258 2.21204C57.2258 3.32554 57.8274 3.81195 59.7067 4.51414C61.3386 5.11977 61.682 5.41185 61.682 5.9841C61.682 6.62191 61.0165 7.07613 59.8571 7.07613C58.9482 7.05019 58.0492 6.87876 57.1938 6.56827L56.9795 7.33603C57.9 7.7151 58.884 7.91338 59.8784 7.9202C61.5742 7.91901 62.659 7.10832 62.659 5.96264ZM65.5366 7.79979V2.53632H64.5892V7.80098L65.5366 7.79979ZM65.5366 1.66006V0.50365H64.5892V1.66006H65.5366ZM72.3446 7.79979V4.37942C72.3446 3.21228 71.7644 2.43379 70.5837 2.43379C70.222 2.43433 69.8665 2.52793 69.5508 2.7057C69.2352 2.88348 68.9699 3.13952 68.7802 3.44952V2.53035H67.8458V7.80098H68.7932V5.01128C68.7676 4.58491 68.9113 4.16576 69.1927 3.84605C69.474 3.52634 69.87 3.33224 70.2936 3.30646C71.0669 3.30646 71.3996 3.71777 71.3996 4.49864V7.80098L72.3446 7.79979ZM78.2929 7.6913L78.1319 6.96645C77.7731 7.05336 77.4054 7.09699 77.0365 7.0964C76.7777 7.12241 76.5164 7.09024 76.2715 7.0022C76.0265 6.91416 75.8041 6.77245 75.6202 6.58731C75.4363 6.40218 75.2955 6.17823 75.2081 5.93165C75.1206 5.68508 75.0887 5.42202 75.1145 5.16149C75.0888 4.90106 75.1209 4.63814 75.2085 4.39171C75.296 4.14529 75.4368 3.9215 75.6207 3.7365C75.8046 3.55149 76.0269 3.4099 76.2718 3.32192C76.5166 3.23395 76.7778 3.2018 77.0365 3.22778C77.406 3.22861 77.774 3.27587 78.1319 3.36846L78.2929 2.64361C77.8593 2.50413 77.4064 2.43492 76.9512 2.43856C76.587 2.41812 76.2226 2.474 75.8809 2.60265C75.5393 2.73131 75.2279 2.92994 74.9665 3.18599C74.705 3.44203 74.4992 3.74992 74.362 4.09017C74.2248 4.43041 74.1593 4.79562 74.1695 5.16269C74.1593 5.52975 74.2248 5.89496 74.362 6.23521C74.4992 6.57546 74.705 6.88334 74.9665 7.13939C75.2279 7.39543 75.5393 7.59406 75.8809 7.72272C76.2226 7.85137 76.587 7.90725 76.9512 7.88682C77.4056 7.89045 77.858 7.82494 78.2929 7.69249V7.6913ZM84.6284 5.46431V5.17222C84.6704 4.83242 84.6408 4.48752 84.5414 4.16005C84.4419 3.83257 84.275 3.5299 84.0515 3.2718C83.828 3.01369 83.5529 2.80596 83.2442 2.66218C82.9355 2.51839 82.6001 2.44179 82.26 2.43736C81.9156 2.44077 81.5755 2.51533 81.2608 2.65643C80.9462 2.79753 80.6637 3.00216 80.4308 3.25765C80.1978 3.51313 80.0195 3.81404 79.9068 4.14173C79.7941 4.46942 79.7494 4.81691 79.7755 5.16269C79.7568 5.53562 79.8179 5.90825 79.9548 6.25529C80.0917 6.60234 80.3012 6.91569 80.5689 7.17407C80.8367 7.43245 81.1566 7.62983 81.5068 7.75281C81.857 7.87579 82.2294 7.92149 82.5987 7.88682C83.1863 7.88682 83.77 7.79182 84.3277 7.60546L84.1453 6.89015C83.64 7.02314 83.1209 7.09557 82.5987 7.10594C82.3658 7.13642 82.1291 7.11691 81.9042 7.04868C81.6793 6.98046 81.4713 6.86507 81.2939 6.71011C81.1165 6.55515 80.9737 6.36413 80.8748 6.14961C80.776 5.93509 80.7234 5.70194 80.7205 5.4655L84.6284 5.46431ZM83.6941 4.749H80.7205C80.7184 4.54555 80.7569 4.34375 80.8337 4.15556C80.9105 3.96737 81.0241 3.79661 81.1677 3.65341C81.3112 3.51022 81.4819 3.39749 81.6695 3.32192C81.8572 3.24635 82.058 3.20947 82.26 3.21347C83.1363 3.21705 83.6195 3.81195 83.6941 4.75258V4.749ZM91.8557 7.80098V0.708705H90.9083L88.8952 1.12001L89.0349 1.86631L90.9107 1.53012V7.80098H91.8557ZM99.3719 3.72492C99.3719 1.69821 98.3416 0.600216 96.7086 0.600216C96.3953 0.588748 96.0829 0.640447 95.7898 0.752273C95.4966 0.864099 95.2286 1.0338 95.0016 1.25139C94.7745 1.46898 94.593 1.73007 94.4676 2.01932C94.3422 2.30857 94.2755 2.62013 94.2715 2.9357C94.2655 3.23438 94.3208 3.5311 94.4338 3.80735C94.5467 4.0836 94.715 4.33347 94.9281 4.54139C95.1412 4.74931 95.3945 4.91083 95.6723 5.01587C95.9501 5.12092 96.2464 5.16724 96.5428 5.15196C96.8967 5.17411 97.2507 5.11116 97.5756 4.96834C97.9005 4.82551 98.1871 4.60689 98.4115 4.33055C98.2338 6.01748 97.4073 7.09759 95.657 7.09759C95.3331 7.09537 95.0099 7.06626 94.6907 7.01056L94.5723 7.78906C94.947 7.874 95.3298 7.91757 95.7138 7.919C98.0195 7.919 99.3719 6.29764 99.3719 3.72492ZM98.3736 2.92497C98.3603 3.12872 98.3064 3.3277 98.2152 3.51009C98.124 3.69247 97.9973 3.85454 97.8426 3.98666C97.688 4.11878 97.5085 4.21825 97.3149 4.27917C97.1213 4.34009 96.9175 4.36121 96.7157 4.34127C96.5222 4.36391 96.3261 4.34397 96.141 4.28282C95.9559 4.22167 95.7861 4.12077 95.6436 3.98711C95.501 3.85344 95.389 3.6902 95.3152 3.50866C95.2415 3.32713 95.2078 3.13163 95.2165 2.9357C95.2106 2.73226 95.2467 2.52982 95.3225 2.34115C95.3983 2.15247 95.5121 1.98166 95.6568 1.8395C95.8014 1.69734 95.9738 1.58691 96.163 1.5152C96.3522 1.44348 96.5541 1.41202 96.7559 1.42282C96.9624 1.40436 97.1704 1.42957 97.3665 1.49683C97.5627 1.56409 97.7428 1.67191 97.8951 1.81336C98.0474 1.95482 98.1687 2.12679 98.2511 2.31823C98.3335 2.50966 98.3752 2.71634 98.3736 2.92497ZM106.545 4.25425C106.545 2.22754 105.653 0.600216 103.839 0.600216C102.024 0.600216 101.115 2.23231 101.115 4.25425C101.115 6.27618 102.028 7.919 103.839 7.919C105.649 7.919 106.545 6.27618 106.545 4.26021V4.25425ZM105.61 4.25425C105.61 5.80408 105.116 7.07613 103.834 7.07613C102.551 7.07613 102.056 5.8005 102.056 4.26021C102.056 2.71991 102.561 1.44905 103.839 1.44905C105.116 1.44905 105.61 2.71037 105.61 4.26021V4.25425ZM113.417 7.80098V6.95811H109.451C109.483 6.2118 110.063 5.82315 111.641 4.83961C112.79 4.1243 113.328 3.4996 113.328 2.53751C113.328 1.39182 112.491 0.6026 110.73 0.6026C109.967 0.606989 109.209 0.723462 108.48 0.948333L108.641 1.72683C109.271 1.55329 109.92 1.45879 110.573 1.44547C111.808 1.44547 112.377 1.80313 112.377 2.58043C112.377 3.22897 112.033 3.61762 110.874 4.32101C109.016 5.44523 108.393 5.94237 108.393 7.33722V7.80217L113.417 7.80098Z" fill="white"/>
</svg>
