<svg width="182" height="60" viewBox="0 0 182 60" fill="none" xmlns="http://www.w3.org/2000/svg">
<path d="M170.655 29.57L169.185 29.97C167.772 25.17 165.405 23.096 162.063 23.096C159.715 23.096 158.063 24.643 158.063 27.096C158.063 29.444 160.011 30.696 165.243 32.824C170.073 34.6 172.078 36.776 172.078 40.576C172.078 46.361 167.534 49.989 160.078 49.989C156.478 49.989 152.422 49.187 150.13 48.271L149.844 40.233L151.257 39.947C153.377 45.447 156.087 47.527 159.62 47.527C162.675 47.527 164.28 45.407 164.28 43.231C164.28 41.055 163.04 39.794 158.266 38.076C153.722 36.576 150.61 34.639 150.61 29.809C150.61 25.055 154.79 21.026 161.913 21.026C165.273 21.026 168.328 21.599 170.333 22.526L170.655 29.57ZM139.895 32.09C140.067 28.31 139.303 22.85 136.191 22.85C132.991 22.85 131.246 27.948 131.189 32.32L139.895 32.09ZM136.955 21.016C144.783 21.016 148.555 26.744 148.621 34.266H131.017C130.96 40.929 134.492 45.97 141.097 45.97C143.98 45.97 145.641 45.168 147.397 43.908L148.217 44.824C146.27 47.459 142.26 49.979 136.914 49.979C128.322 49.979 122.364 44.079 122.364 35.755C122.344 28.232 127.234 21.015 136.951 21.015M111.561 34.955C111.389 28.998 109.213 24.282 105.031 24.282C104.038 24.282 103.274 24.454 102.091 24.855L102.435 47.748C102.855 47.92 103.848 48.034 104.555 48.034C108.622 48.034 111.562 42.287 111.562 34.954M120.288 34.496C120.288 43.909 114.331 49.98 104.268 49.98C100.668 49.98 96.9554 49.407 93.7284 48.663C94.0144 44.883 94.0144 21.463 93.7284 17.063C93.4424 14.763 92.7924 13.683 91.0284 13.463L89.8444 13.348V12.298L102.262 10C102.205 11.947 102.09 17.064 102.09 23.08C104.267 21.992 106.27 21.362 108.983 21.362C115.456 21.362 120.286 26.862 120.286 34.498M88.6504 29.38C84.8124 26.86 80.6884 27.948 79.8674 29.38C79.5044 33.78 79.5814 40.58 79.9244 44.063C80.0964 46.363 80.7444 47.328 82.5214 47.5L84.8694 47.73V49.23H67.3224V47.73L68.6784 47.5C70.3784 47.328 70.9784 46.354 71.0844 44.063C71.5044 40.34 71.6194 32.531 71.0844 28.235C70.9694 25.772 70.3784 24.855 68.6784 24.635L67.3224 24.463V23.433L79.8664 21.027L79.6944 27.442C82.6344 20.798 88.4774 19.996 91.6464 21.772L88.6504 29.38ZM47.4854 35.528C47.4854 42.535 49.3854 48.263 53.1854 48.263C57.3094 48.263 58.4934 42.65 58.4934 35.528C58.4934 28.406 56.6694 22.85 52.7924 22.85C48.6494 22.85 47.4844 28.292 47.4844 35.528M67.3794 35.413C67.3794 43.451 62.0714 49.981 52.6014 49.981C43.2844 49.981 38.5874 43.776 38.5874 35.641C38.5874 27.661 43.8954 21.016 53.3654 21.016C62.6824 21.016 67.3794 27.259 67.3794 35.412M42.9984 21.6L41.0514 22.173C39.4094 16.541 36.5074 13.333 31.5044 13.333H24.9744C24.6114 17.075 24.4394 22.86 24.6114 29.103L28.9644 28.873C31.9044 28.873 33.1444 26.753 33.8524 23.661H35.4944V36.681H33.8524C33.1464 33.531 31.9054 31.381 28.9644 31.221L24.6114 31.164C24.6114 35.804 24.6684 39.764 24.9744 42.181C25.2604 45.618 26.2144 47.183 28.7344 47.508L31.1024 47.738V49.238H9.77637V47.738L11.5524 47.508C14.0154 47.164 15.0274 45.608 15.3124 42.181C15.7894 36.568 15.9044 24.577 15.3124 17.914C15.0264 14.364 14.0144 12.931 11.5524 12.644L9.77637 12.358V10.81H42.9424L42.9984 21.6Z" fill="white"/>
</svg>
