<svg width="302" height="60" viewBox="0 0 302 60" fill="none" xmlns="http://www.w3.org/2000/svg">
<path d="M30.676 13.3628V47.5404H25.3438V31.5207H5.48156V47.5404H0.149414V13.3957H5.48156V27.2773H25.3438V13.3628H30.676Z" fill="white"/>
<path d="M57.6696 35.8297H45.9055L40.74 47.5731H35.5078L50.971 13.3955H54.5036L68.4338 47.5731H62.4685L57.6696 35.8297ZM56.0699 31.8823L52.0708 22.0468L47.6718 31.8823H56.0699Z" fill="white"/>
<path d="M79.9653 33.8233L66.6016 13.3298H73.0335L83.2979 28.9219L92.7957 13.3627H98.3278L85.564 33.9548V47.5404H79.9653V33.8233Z" fill="white"/>
<path d="M134.62 13.3628V47.672H131.687L108.226 22.9681V47.5733H103.394V13.3957H106.36L129.788 38.0996V13.3628H134.62Z" fill="white"/>
<path d="M165.212 43.264L164.513 47.5732H143.084V13.2969H164.079L163.379 17.6061H148.449V27.6061H161.647L161.013 31.6192H148.449V43.2969H165.212V43.264Z" fill="white"/>
<path d="M193.24 43.264L192.507 47.5732H171.111V13.2969H192.073L191.373 17.6061H176.477V27.6061H189.674L189.041 31.6192H176.477V43.2969H193.24V43.264Z" fill="white"/>
<path d="M231.298 29.6456C231.298 36.9153 227.399 47.7706 208.637 47.7706C206.437 47.7706 202.571 47.6061 199.139 47.2772V13.6258C202.638 13.0995 206.104 12.8364 209.603 12.8035C226.499 12.8035 231.298 21.7179 231.298 29.6456ZM225.533 29.9745C225.533 23.9877 222.467 17.0798 209.736 17.0798C208.137 17.0798 206.037 17.1785 204.504 17.31V43.3956C206.037 43.4943 208.07 43.5929 209.57 43.5929C222.5 43.5929 225.533 35.8956 225.533 29.9416V29.9745Z" fill="white"/>
<path d="M259.326 43.2641L258.626 47.5733H238.297V13.3628H243.629V43.2312H259.326V43.2641Z" fill="white"/>
<path d="M286.585 43.264L285.886 47.5732H264.457V13.2969H285.419L284.719 17.6061H269.789V27.6061H283.02L282.42 31.5863H269.823V43.264H286.585Z" fill="white"/>
<path d="M299.977 20.6525C300.787 17.5941 298.932 14.4665 295.833 13.6667C292.735 12.867 289.566 14.6979 288.756 17.7563C287.946 20.8146 289.801 23.9423 292.899 24.742C295.998 25.5418 299.166 23.7108 299.977 20.6525Z" fill="white"/>
</svg>
