<svg width="167" height="50" viewBox="0 0 167 50" fill="none" xmlns="http://www.w3.org/2000/svg">
<path d="M162.223 13.0781C160.139 13.0781 158.446 11.3851 158.446 9.3014C158.446 7.21768 160.139 5.52466 162.223 5.52466C164.307 5.52466 166 7.21768 166 9.3014C166 11.3851 164.177 13.0781 162.223 13.0781ZM162.223 6.17582C160.4 6.17582 158.967 7.60838 158.967 9.43163C158.967 11.2549 160.4 12.6874 162.223 12.6874C164.046 12.6874 165.479 11.2549 165.479 9.43163C165.479 7.60838 163.916 6.17582 162.223 6.17582Z" fill="white"/>
<path d="M163.786 11.255H163.005L162.093 9.56196H161.442V11.255H160.791V7.21777H162.354C163.135 7.21777 163.656 7.7387 163.656 8.38987C163.656 8.9108 163.396 9.30149 162.875 9.43173L163.786 11.255ZM161.442 9.04103H162.354C162.745 9.04103 163.005 8.78056 163.005 8.5201C163.005 8.1294 162.745 7.99917 162.354 7.99917H161.442V9.04103Z" fill="white"/>
<path d="M10.111 28.5759C5.29237 27.4038 6.46446 22.9759 10.3714 21.4131C13.3668 20.241 14.1482 19.8503 32.3807 19.8503C46.1854 19.8503 51.9156 19.9806 51.9156 19.9806L53.7389 17.3759C53.7389 17.3759 49.9621 16.9852 38.5017 17.1154C29.7761 17.1154 5.8133 16.5945 5.55283 25.0596C5.4226 32.3527 17.1435 33.0038 30.297 33.0038C43.4505 33.0038 45.2738 35.8689 45.2738 37.8224C45.2738 39.255 44.7528 44.7247 30.5575 44.7247C16.3621 44.7247 3.85981 44.0736 3.85981 44.0736L1.51562 47.4596C1.51562 47.4596 18.5761 47.7201 23.004 47.8503C27.4319 47.9806 46.5761 48.241 46.5761 38.0829C46.5761 27.1434 22.3528 31.7015 10.111 28.5759Z" fill="white"/>
<path d="M148.158 46.6783C146.855 46.6783 144.381 46.548 142.948 43.8132C144.641 41.2085 145.944 37.8225 146.855 34.6969C148.679 28.7062 147.507 25.8411 147.507 25.8411L144.511 23.6271C144.511 23.6271 139.953 26.1015 139.432 33.2643C139.041 37.562 140.083 41.3387 141.386 43.5527C140.214 45.2457 139.172 46.4178 137.869 46.4178C134.483 46.4178 133.702 36.9108 134.874 27.1434C135.135 24.4085 136.046 19.3294 136.046 19.3294L160.139 19.8504L162.223 16.855H136.437C137.348 12.1666 138 8.91084 138 8.91084L135.395 7.08758C135.395 7.08758 134.223 10.7341 133.181 16.855H128.362C129.274 12.0364 130.055 8.91084 130.055 8.91084L127.451 7.08758C127.451 7.08758 126.409 10.9946 125.367 16.855H75.0973C76.7903 9.1713 76.7903 4.61316 76.7903 4.61316L73.5345 1.87828C73.5345 1.87828 68.8461 5.91549 65.981 21.8039C64.9392 28.055 64.4182 35.869 64.4182 39.6457C64.4182 39.6457 62.595 46.9387 59.4694 46.8085C58.0368 46.8085 57.5159 44.855 57.1252 41.9899C58.2973 39.5155 59.2089 36.7806 59.9903 34.176C60.6415 32.0922 62.4647 25.9713 63.1159 22.7155C65.5903 11.3853 64.9392 4.61316 64.9392 4.61316L61.4229 1.74805C61.4229 1.74805 56.6043 5.78526 55.4322 21.8039C55.1717 25.0597 54.5206 35.4783 55.6926 42.1201C54.3903 44.5946 52.9578 46.6783 51.5252 46.6783C49.3112 46.6783 49.3112 39.9062 49.4415 35.9992C49.7019 30.6597 50.6136 27.4039 50.6136 27.4039L48.3996 25.8411C48.3996 25.8411 47.2275 31.5713 47.3578 37.3015C47.488 42.9015 47.8787 48.1108 51.5252 48.1108C53.2182 48.1108 54.781 46.2876 56.0833 43.9434C56.7345 46.4178 57.7764 47.9806 59.4694 48.1108C61.9438 48.2411 63.5066 45.8969 64.5485 43.5527C64.6787 45.8969 65.0694 47.8504 65.0694 47.8504H66.1112C66.1112 47.8504 65.4601 42.9015 69.4973 34.8271C71.4508 30.6597 72.4926 28.4457 76.0089 26.8829C76.0089 26.8829 74.9671 28.7062 73.795 35.4783C72.6229 42.5108 74.9671 48.2411 78.3531 48.2411C80.6973 48.2411 81.8694 45.5062 82.3903 43.8132C83.1717 46.4178 84.7345 48.2411 86.5578 48.2411C88.9019 48.2411 91.5066 43.6829 92.1578 39.255C92.8089 39.6457 93.3298 39.6457 93.5903 39.6457C94.7624 39.6457 95.8043 38.6039 96.4554 37.4318C96.195 43.162 97.4973 48.2411 99.7113 48.2411C102.446 48.2411 104.009 44.0736 104.53 42.7713C105.051 44.4643 106.874 48.2411 109.609 48.2411C110.911 48.2411 112.214 47.3294 113.516 45.8969C114.558 47.8504 116.121 48.2411 117.423 48.2411C121.2 48.2411 123.804 41.0783 123.935 40.5573C124.195 44.4643 125.237 48.2411 128.493 48.2411C132.009 48.2411 133.051 42.3806 133.051 42.3806C133.962 45.1155 135.655 48.2411 138.13 48.2411C139.562 48.2411 141.125 47.069 142.428 45.1155C144.772 48.2411 147.897 48.2411 148.418 48.2411C158.967 48.2411 161.962 36.6504 161.962 36.6504L160.66 35.0876C160.53 34.9573 157.665 46.8085 148.158 46.6783ZM57.3857 21.6736C58.1671 14.5108 61.0322 5.26433 62.4647 5.39456C64.288 5.52479 63.2461 14.5108 61.6833 22.455C61.0322 25.9713 59.3392 31.962 58.8182 34.0457C58.4275 35.6085 57.6461 37.562 56.8647 39.6457C56.474 32.4829 57.2554 22.7155 57.3857 21.6736ZM66.3717 38.8643C66.3717 31.8318 67.9345 22.7155 68.195 21.8039C69.4973 14.6411 73.1438 5.52479 74.4461 5.52479C76.2694 5.65502 74.5764 14.6411 72.3624 22.455C71.4508 25.9713 67.674 35.6085 66.3717 38.8643ZM86.5578 46.548C84.3438 46.548 83.3019 41.8597 84.2136 35.7387C85.1252 29.748 87.9903 25.9713 89.5531 25.9713C89.9438 25.9713 90.595 26.362 90.595 28.576C90.4647 28.8364 89.5531 30.269 89.5531 33.7853C89.5531 35.6085 89.9438 37.0411 90.7252 38.0829C89.8136 43.5527 88.1205 46.548 86.5578 46.548ZM113.907 42.9015C113.516 40.5574 113.646 37.562 114.167 34.5667C114.688 30.7899 116.511 25.9713 117.814 25.9713C119.376 25.9713 118.855 30.5294 117.944 34.6969C117.293 37.0411 115.73 40.2969 113.907 42.9015ZM123.935 36.9108C123.674 37.6922 120.548 46.6783 117.293 46.6783C115.86 46.6783 114.948 45.8969 114.428 44.5946C116.381 41.8597 118.204 38.2132 119.116 34.8271C120.939 28.8364 119.767 25.9713 119.767 25.9713L116.772 23.7573C116.772 23.7573 112.214 26.7527 111.562 34.8271C111.302 38.8643 111.823 41.8597 112.865 44.2039C111.693 45.6364 110.39 46.6783 109.479 46.6783C107.265 46.6783 105.832 42.9015 106.093 40.4271C106.744 34.8271 108.828 27.4039 108.828 27.4039L106.744 25.8411C106.744 25.8411 105.311 32.6132 104.66 35.869C103.618 41.7294 101.795 46.8085 99.7113 46.8085C97.4973 46.8085 98.5392 37.8225 98.7996 35.348C99.1903 31.962 100.883 26.2318 100.883 26.2318L98.7996 24.669C98.7996 24.669 97.888 28.9667 97.2368 31.4411C96.7159 33.9155 95.674 38.2132 93.5903 38.2132C92.4182 38.2132 91.6368 36.1294 92.1578 33.2643C92.5485 30.7899 92.9392 30.0085 92.9392 30.0085L92.1578 29.4876C92.1578 29.4876 92.1578 28.9667 91.8973 27.6643C91.7671 26.362 91.5066 25.8411 91.5066 25.8411L88.5112 23.7573C88.5112 23.7573 83.4322 24.669 81.8694 35.348C81.6089 37.562 81.6089 39.6457 81.8694 41.469C81.3485 43.9434 80.4368 46.548 78.3531 46.548C76.1392 46.548 75.2275 41.8597 76.2694 35.6085C77.181 29.6178 79.9159 24.5387 79.9159 24.5387C79.9159 24.5387 77.8322 24.4085 75.6182 25.4504C74.0554 26.2318 72.8833 27.4039 71.9717 28.3155C72.6229 26.4922 73.274 24.669 73.795 22.7155C74.1857 21.0225 74.5764 19.5899 74.9671 18.1573L125.367 19.3294C124.586 24.4085 123.804 30.5294 123.935 36.9108ZM132.269 26.6225C131.618 35.4783 132.4 39.776 132.4 39.776C131.618 42.6411 130.576 46.6783 128.623 46.6783C126.8 46.6783 125.497 41.5992 127.19 27.2736C127.581 24.4085 127.972 21.8039 128.362 19.3294L133.181 19.4597C132.79 21.6736 132.4 24.0178 132.269 26.6225ZM142.037 34.4364C142.428 30.5294 144.381 25.8411 145.683 25.8411C147.246 25.8411 146.725 30.3992 145.814 34.5667C145.293 36.7806 143.99 39.776 142.558 42.2504C141.907 40.5574 141.646 38.0829 142.037 34.4364Z" fill="white"/>
<path d="M50.0926 13.469C50.353 13.9899 50.7437 14.2504 51.2647 14.2504C51.2647 14.2504 51.6554 13.8597 51.9158 12.6876C52.0461 12.0364 52.1763 11.1248 52.3065 9.95269C52.3065 9.30153 52.0461 8.65036 51.7856 8.25967C51.5251 7.73874 51.1344 7.47827 50.6135 7.47827C50.6135 7.47827 50.0926 7.86897 49.7019 9.69223C49.5716 10.6039 49.4414 11.255 49.4414 11.9062C49.5716 12.6876 49.9623 13.2085 50.0926 13.469Z" fill="white"/>
</svg>
