<svg width="33" height="32" viewBox="0 0 33 32" fill="none" xmlns="http://www.w3.org/2000/svg">
<path id="Star 1" d="M15.5621 1.0345C15.8843 0.163885 17.1157 0.163887 17.4379 1.03451L21.067 10.8422C21.1683 11.1159 21.3841 11.3317 21.6578 11.433L31.4655 15.0621C32.3361 15.3843 32.3361 16.6157 31.4655 16.9379L21.6578 20.567C21.3841 20.6683 21.1683 20.8841 21.067 21.1578L17.4379 30.9655C17.1157 31.8361 15.8843 31.8361 15.5621 30.9655L11.933 21.1578C11.8317 20.8841 11.6159 20.6683 11.3422 20.567L1.5345 16.9379C0.663885 16.6157 0.663887 15.3843 1.53451 15.0621L11.3422 11.433C11.6159 11.3317 11.8317 11.1159 11.933 10.8422L15.5621 1.0345Z" fill="white"/>
</svg>
