<svg width="79" height="19" viewBox="0 0 79 19" fill="none" xmlns="http://www.w3.org/2000/svg">
<path d="M5.04 18L0.576 0.48H4.104L7.728 15.72L6.792 15.168H9.192L8.136 15.72L10.992 1.152H13.92L10.368 18H5.04ZM15.504 18L11.64 1.152H14.688L17.976 15.72L16.944 15.168H19.296L18.384 15.72L21.576 0.48H24.912L20.928 18H15.504ZM33.0272 18.456C31.8752 18.456 30.8592 18.272 29.9792 17.904C29.0992 17.536 28.3552 17.04 27.7472 16.416C27.1392 15.776 26.6752 15.056 26.3552 14.256C26.0512 13.456 25.8992 12.624 25.8992 11.76V11.256C25.8992 10.36 26.0592 9.512 26.3792 8.712C26.7152 7.896 27.1872 7.176 27.7952 6.552C28.4192 5.912 29.1712 5.416 30.0512 5.064C30.9312 4.696 31.9232 4.512 33.0272 4.512C34.1312 4.512 35.1232 4.696 36.0032 5.064C36.8832 5.416 37.6272 5.912 38.2352 6.552C38.8592 7.176 39.3312 7.896 39.6512 8.712C39.9712 9.512 40.1312 10.36 40.1312 11.256V11.76C40.1312 12.624 39.9712 13.456 39.6512 14.256C39.3472 15.056 38.8912 15.776 38.2832 16.416C37.6752 17.04 36.9312 17.536 36.0512 17.904C35.1712 18.272 34.1632 18.456 33.0272 18.456ZM33.0272 15.6C33.8432 15.6 34.5312 15.424 35.0912 15.072C35.6512 14.704 36.0752 14.216 36.3632 13.608C36.6512 12.984 36.7952 12.28 36.7952 11.496C36.7952 10.696 36.6432 9.992 36.3392 9.384C36.0512 8.76 35.6192 8.272 35.0432 7.92C34.4832 7.552 33.8112 7.368 33.0272 7.368C32.2432 7.368 31.5632 7.552 30.9872 7.92C30.4272 8.272 29.9952 8.76 29.6912 9.384C29.3872 9.992 29.2352 10.696 29.2352 11.496C29.2352 12.28 29.3792 12.984 29.6672 13.608C29.9712 14.216 30.4032 14.704 30.9632 15.072C31.5232 15.424 32.2112 15.6 33.0272 15.6ZM47.4922 18.408C45.9883 18.408 44.8203 17.912 43.9883 16.92C43.1723 15.928 42.7643 14.456 42.7643 12.504V4.944H46.1003V12.792C46.1003 13.592 46.3243 14.232 46.7723 14.712C47.2203 15.176 47.8283 15.408 48.5963 15.408C49.3643 15.408 49.9883 15.16 50.4683 14.664C50.9643 14.168 51.2123 13.496 51.2123 12.648V4.944H54.5483V18H51.9083V12.456H52.1723C52.1723 13.768 52.0043 14.864 51.6683 15.744C51.3323 16.624 50.8283 17.288 50.1563 17.736C49.4843 18.184 48.6443 18.408 47.6363 18.408H47.4922ZM63.7804 18.432C62.8684 18.432 62.0284 18.264 61.2604 17.928C60.4924 17.592 59.8284 17.12 59.2684 16.512C58.7084 15.904 58.2764 15.2 57.9724 14.4C57.6684 13.584 57.5164 12.704 57.5164 11.76V11.256C57.5164 10.328 57.6604 9.456 57.9484 8.64C58.2524 7.824 58.6684 7.112 59.1964 6.504C59.7404 5.896 60.3884 5.424 61.1404 5.088C61.9084 4.736 62.7564 4.56 63.6844 4.56C64.7084 4.56 65.6044 4.784 66.3724 5.232C67.1564 5.664 67.7804 6.32 68.2444 7.2C68.7084 8.08 68.9644 9.184 69.0124 10.512L68.0284 9.36V0.48H71.3644V18H68.7244V12.456H69.3004C69.2524 13.784 68.9804 14.896 68.4844 15.792C67.9884 16.672 67.3324 17.336 66.5164 17.784C65.7164 18.216 64.8044 18.432 63.7804 18.432ZM64.5244 15.624C65.1804 15.624 65.7804 15.48 66.3244 15.192C66.8684 14.888 67.3004 14.456 67.6204 13.896C67.9564 13.32 68.1244 12.648 68.1244 11.88V10.92C68.1244 10.152 67.9564 9.512 67.6204 9C67.2844 8.472 66.8444 8.072 66.3004 7.8C65.7564 7.512 65.1644 7.368 64.5244 7.368C63.8044 7.368 63.1644 7.544 62.6044 7.896C62.0604 8.232 61.6284 8.712 61.3084 9.336C61.0044 9.96 60.8524 10.688 60.8524 11.52C60.8524 12.352 61.0124 13.08 61.3324 13.704C61.6524 14.312 62.0844 14.784 62.6284 15.12C63.1884 15.456 63.8204 15.624 64.5244 15.624ZM74.6336 18V14.16H78.3776V18H74.6336Z" fill="#121212"/>
</svg>
